<svg xmlns="http://www.w3.org/2000/svg" xmlns:xlink="http://www.w3.org/1999/xlink" version="1.1" x="0px" y="0px" viewBox="0 0 100 125" enable-background="new 0 0 100 100" xml:space="preserve"><rect x="5" y="5.03" fill="none" width="90" height="89.997"/><g><path d="M89.588,33.302c-2.164-5.117-5.262-9.711-9.205-13.655c-3.945-3.943-8.539-7.041-13.656-9.205   C61.426,8.199,55.797,7.063,50,7.063s-11.425,1.137-16.726,3.379c-5.117,2.164-9.712,5.262-13.655,9.205   c-3.944,3.944-7.041,8.538-9.206,13.656c-2.242,5.301-3.379,10.929-3.379,16.726c0,5.798,1.137,11.425,3.379,16.727   c2.165,5.118,5.262,9.712,9.206,13.655c3.943,3.943,8.538,7.041,13.655,9.205c5.301,2.242,10.929,3.38,16.726,3.38   s11.426-1.138,16.727-3.38c5.117-2.164,9.713-5.262,13.656-9.205s7.041-8.538,9.205-13.655c2.242-5.302,3.379-10.929,3.379-16.727   C92.967,44.231,91.83,38.604,89.588,33.302z M87.453,65.852c-2.047,4.842-4.979,9.188-8.709,12.92   c-3.732,3.732-8.078,6.662-12.92,8.71c-5.014,2.12-10.338,3.196-15.824,3.196c-5.484,0-10.809-1.076-15.823-3.196   c-4.841-2.048-9.188-4.978-12.919-8.71c-3.732-3.731-6.662-8.078-8.71-12.92c-2.121-5.014-3.196-10.338-3.196-15.823   s1.075-10.809,3.196-15.823c2.048-4.841,4.978-9.188,8.71-12.92c3.731-3.731,8.078-6.662,12.919-8.709   C39.191,10.455,44.514,9.38,50,9.38s10.811,1.075,15.824,3.196c4.842,2.047,9.188,4.978,12.92,8.709   c3.73,3.732,6.662,8.079,8.709,12.92c2.121,5.014,3.195,10.338,3.195,15.823S89.574,60.838,87.453,65.852z"/><path d="M40.598,37.846c0,4.174,2.707,7.791,6.652,8.992l0.021-5.689l-0.063-12.282C43.289,30.081,40.598,33.692,40.598,37.846z"/><path d="M52.73,71.211c3.957-1.195,6.672-4.814,6.672-8.999c0-4.153-2.689-7.766-6.611-8.979L52.73,70.43V71.211z"/><path d="M76.121,23.907c-3.393-3.392-7.342-6.056-11.742-7.916c-4.555-1.927-9.393-2.903-14.379-2.903s-9.824,0.977-14.379,2.903   c-4.398,1.86-8.349,4.524-11.741,7.916c-3.393,3.393-6.056,7.343-7.917,11.742c-1.927,4.555-2.903,9.393-2.903,14.379   c0,4.987,0.977,9.825,2.903,14.38c1.86,4.398,4.524,8.35,7.917,11.742c3.392,3.392,7.343,6.055,11.741,7.916   c4.555,1.926,9.393,2.902,14.379,2.902s9.824-0.977,14.379-2.902c4.4-1.861,8.35-4.524,11.742-7.916   c3.393-3.393,6.057-7.344,7.916-11.742c1.928-4.555,2.904-9.393,2.904-14.38c0-4.986-0.977-9.824-2.904-14.379   C82.178,31.25,79.514,27.3,76.121,23.907z M52.832,41.157l-0.021,6.356c3.309,0.632,6.332,2.385,8.547,4.964   c2.326,2.71,3.607,6.167,3.607,9.734c0,3.581-1.291,7.05-3.635,9.765c-2.23,2.585-5.271,4.332-8.6,4.949v2.581   c0,1.534-1.248,2.781-2.781,2.781s-2.781-1.247-2.781-2.781v-2.601c-3.305-0.637-6.322-2.391-8.532-4.969   c-2.321-2.709-3.601-6.162-3.601-9.726c0-1.534,1.248-2.781,2.781-2.781s2.781,1.247,2.781,2.781c0,4.134,2.674,7.739,6.57,8.966   V70.42l0.063-17.868c-3.318-0.624-6.35-2.374-8.574-4.956c-2.335-2.713-3.621-6.176-3.621-9.75c0-3.565,1.281-7.021,3.605-9.731   c2.212-2.578,5.232-4.331,8.541-4.965l-0.014-2.585c-0.008-1.534,1.234-2.787,2.768-2.795h0.014c1.525,0,2.773,1.241,2.781,2.767   l0.012,2.598c3.326,0.62,6.365,2.368,8.594,4.953c2.34,2.714,3.629,6.18,3.629,9.759c0,1.533-1.248,2.781-2.781,2.781   s-2.781-1.248-2.781-2.781c0-4.164-2.697-7.777-6.631-8.985L52.832,41.157z"/></g><text x="0" y="115" fill="#000000" font-size="5px" font-weight="bold" font-family="'Helvetica Neue', Helvetica, Arial-Unicode, Arial, Sans-serif">Created by Tinashe Mugayi</text><text x="0" y="120" fill="#000000" font-size="5px" font-weight="bold" font-family="'Helvetica Neue', Helvetica, Arial-Unicode, Arial, Sans-serif">from the Noun Project</text></svg>